<mxfile host="Electron" agent="Mozilla/5.0 (Macintosh; Intel Mac OS X 10_15_7) AppleWebKit/537.36 (KHTML, like Gecko) draw.io/28.2.8 Chrome/140.0.7339.240 Electron/38.4.0 Safari/537.36" version="28.2.8">
  <diagram name="Page-1" id="qJigF_BeTIae1vNN_24u">
    <mxGraphModel dx="1413" dy="754" grid="1" gridSize="10" guides="1" tooltips="1" connect="1" arrows="1" fold="1" page="0" pageScale="1" pageWidth="850" pageHeight="1100" math="0" shadow="0">
      <root>
        <mxCell id="0" />
        <mxCell id="1" parent="0" />
        <mxCell id="CPLv1qrcHlD6OugL46LV-21" value="Book" style="swimlane;fontStyle=1;align=center;verticalAlign=top;childLayout=stackLayout;horizontal=1;startSize=26;horizontalStack=0;resizeParent=1;resizeParentMax=0;resizeLast=0;collapsible=1;marginBottom=0;whiteSpace=wrap;html=1;" vertex="1" parent="1">
          <mxGeometry x="-20" y="290" width="230" height="190" as="geometry" />
        </mxCell>
        <mxCell id="CPLv1qrcHlD6OugL46LV-22" value="- bookId:int;&lt;div&gt;- title:string;&lt;/div&gt;&lt;div&gt;- author:string;&lt;/div&gt;&lt;div&gt;- isBorrow:boolean;&lt;/div&gt;&lt;div&gt;- makeCopy:int;&lt;/div&gt;" style="text;strokeColor=none;fillColor=none;align=left;verticalAlign=top;spacingLeft=4;spacingRight=4;overflow=hidden;rotatable=0;points=[[0,0.5],[1,0.5]];portConstraint=eastwest;whiteSpace=wrap;html=1;" vertex="1" parent="CPLv1qrcHlD6OugL46LV-21">
          <mxGeometry y="26" width="230" height="104" as="geometry" />
        </mxCell>
        <mxCell id="CPLv1qrcHlD6OugL46LV-23" value="" style="line;strokeWidth=1;fillColor=none;align=left;verticalAlign=middle;spacingTop=-1;spacingLeft=3;spacingRight=3;rotatable=0;labelPosition=right;points=[];portConstraint=eastwest;strokeColor=inherit;" vertex="1" parent="CPLv1qrcHlD6OugL46LV-21">
          <mxGeometry y="130" width="230" height="8" as="geometry" />
        </mxCell>
        <mxCell id="CPLv1qrcHlD6OugL46LV-24" value="- getTitle():book;&lt;div&gt;- getAuthor():book;&lt;/div&gt;" style="text;strokeColor=none;fillColor=none;align=left;verticalAlign=top;spacingLeft=4;spacingRight=4;overflow=hidden;rotatable=0;points=[[0,0.5],[1,0.5]];portConstraint=eastwest;whiteSpace=wrap;html=1;" vertex="1" parent="CPLv1qrcHlD6OugL46LV-21">
          <mxGeometry y="138" width="230" height="52" as="geometry" />
        </mxCell>
        <mxCell id="CPLv1qrcHlD6OugL46LV-25" value="Librarian" style="swimlane;fontStyle=1;align=center;verticalAlign=top;childLayout=stackLayout;horizontal=1;startSize=26;horizontalStack=0;resizeParent=1;resizeParentMax=0;resizeLast=0;collapsible=1;marginBottom=0;whiteSpace=wrap;html=1;" vertex="1" parent="1">
          <mxGeometry x="160" y="630" width="230" height="86" as="geometry" />
        </mxCell>
        <mxCell id="CPLv1qrcHlD6OugL46LV-26" value="" style="line;strokeWidth=1;fillColor=none;align=left;verticalAlign=middle;spacingTop=-1;spacingLeft=3;spacingRight=3;rotatable=0;labelPosition=right;points=[];portConstraint=eastwest;strokeColor=inherit;" vertex="1" parent="CPLv1qrcHlD6OugL46LV-25">
          <mxGeometry y="26" width="230" height="8" as="geometry" />
        </mxCell>
        <mxCell id="CPLv1qrcHlD6OugL46LV-27" value="+addBook():void&lt;div&gt;+findBook():book&lt;/div&gt;" style="text;strokeColor=none;fillColor=none;align=left;verticalAlign=top;spacingLeft=4;spacingRight=4;overflow=hidden;rotatable=0;points=[[0,0.5],[1,0.5]];portConstraint=eastwest;whiteSpace=wrap;html=1;" vertex="1" parent="CPLv1qrcHlD6OugL46LV-25">
          <mxGeometry y="34" width="230" height="52" as="geometry" />
        </mxCell>
        <mxCell id="CPLv1qrcHlD6OugL46LV-28" value="User" style="swimlane;fontStyle=1;align=center;verticalAlign=top;childLayout=stackLayout;horizontal=1;startSize=26;horizontalStack=0;resizeParent=1;resizeParentMax=0;resizeLast=0;collapsible=1;marginBottom=0;whiteSpace=wrap;html=1;" vertex="1" parent="1">
          <mxGeometry x="320" y="340" width="230" height="190" as="geometry" />
        </mxCell>
        <mxCell id="CPLv1qrcHlD6OugL46LV-29" value="- userId:int&lt;div&gt;- userName:string&lt;/div&gt;" style="text;strokeColor=none;fillColor=none;align=left;verticalAlign=top;spacingLeft=4;spacingRight=4;overflow=hidden;rotatable=0;points=[[0,0.5],[1,0.5]];portConstraint=eastwest;whiteSpace=wrap;html=1;" vertex="1" parent="CPLv1qrcHlD6OugL46LV-28">
          <mxGeometry y="26" width="230" height="104" as="geometry" />
        </mxCell>
        <mxCell id="CPLv1qrcHlD6OugL46LV-30" value="" style="line;strokeWidth=1;fillColor=none;align=left;verticalAlign=middle;spacingTop=-1;spacingLeft=3;spacingRight=3;rotatable=0;labelPosition=right;points=[];portConstraint=eastwest;strokeColor=inherit;" vertex="1" parent="CPLv1qrcHlD6OugL46LV-28">
          <mxGeometry y="130" width="230" height="8" as="geometry" />
        </mxCell>
        <mxCell id="CPLv1qrcHlD6OugL46LV-31" value="- getTitle():book;&lt;div&gt;- getAuthor():book;&lt;/div&gt;" style="text;strokeColor=none;fillColor=none;align=left;verticalAlign=top;spacingLeft=4;spacingRight=4;overflow=hidden;rotatable=0;points=[[0,0.5],[1,0.5]];portConstraint=eastwest;whiteSpace=wrap;html=1;" vertex="1" parent="CPLv1qrcHlD6OugL46LV-28">
          <mxGeometry y="138" width="230" height="52" as="geometry" />
        </mxCell>
        <mxCell id="CPLv1qrcHlD6OugL46LV-32" value="Member" style="swimlane;fontStyle=1;align=center;verticalAlign=top;childLayout=stackLayout;horizontal=1;startSize=26;horizontalStack=0;resizeParent=1;resizeParentMax=0;resizeLast=0;collapsible=1;marginBottom=0;whiteSpace=wrap;html=1;" vertex="1" parent="1">
          <mxGeometry x="470" y="580" width="230" height="190" as="geometry" />
        </mxCell>
        <mxCell id="CPLv1qrcHlD6OugL46LV-33" value="-address:string&lt;div&gt;-phone:string&lt;/div&gt;&lt;div&gt;-borrowBookList:&lt;/div&gt;" style="text;strokeColor=none;fillColor=none;align=left;verticalAlign=top;spacingLeft=4;spacingRight=4;overflow=hidden;rotatable=0;points=[[0,0.5],[1,0.5]];portConstraint=eastwest;whiteSpace=wrap;html=1;" vertex="1" parent="CPLv1qrcHlD6OugL46LV-32">
          <mxGeometry y="26" width="230" height="104" as="geometry" />
        </mxCell>
        <mxCell id="CPLv1qrcHlD6OugL46LV-34" value="" style="line;strokeWidth=1;fillColor=none;align=left;verticalAlign=middle;spacingTop=-1;spacingLeft=3;spacingRight=3;rotatable=0;labelPosition=right;points=[];portConstraint=eastwest;strokeColor=inherit;" vertex="1" parent="CPLv1qrcHlD6OugL46LV-32">
          <mxGeometry y="130" width="230" height="8" as="geometry" />
        </mxCell>
        <mxCell id="CPLv1qrcHlD6OugL46LV-35" value="-borrowBook():book&lt;div&gt;-returnBook():book&lt;/div&gt;" style="text;strokeColor=none;fillColor=none;align=left;verticalAlign=top;spacingLeft=4;spacingRight=4;overflow=hidden;rotatable=0;points=[[0,0.5],[1,0.5]];portConstraint=eastwest;whiteSpace=wrap;html=1;" vertex="1" parent="CPLv1qrcHlD6OugL46LV-32">
          <mxGeometry y="138" width="230" height="52" as="geometry" />
        </mxCell>
        <mxCell id="CPLv1qrcHlD6OugL46LV-36" style="edgeStyle=orthogonalEdgeStyle;rounded=0;orthogonalLoop=1;jettySize=auto;html=1;entryX=-0.005;entryY=0.722;entryDx=0;entryDy=0;entryPerimeter=0;endArrow=block;endFill=0;" edge="1" parent="1" source="CPLv1qrcHlD6OugL46LV-25" target="CPLv1qrcHlD6OugL46LV-29">
          <mxGeometry relative="1" as="geometry" />
        </mxCell>
        <mxCell id="CPLv1qrcHlD6OugL46LV-37" style="edgeStyle=orthogonalEdgeStyle;rounded=0;orthogonalLoop=1;jettySize=auto;html=1;entryX=1.004;entryY=0.757;entryDx=0;entryDy=0;entryPerimeter=0;endArrow=block;endFill=0;" edge="1" parent="1" source="CPLv1qrcHlD6OugL46LV-32" target="CPLv1qrcHlD6OugL46LV-29">
          <mxGeometry relative="1" as="geometry" />
        </mxCell>
      </root>
    </mxGraphModel>
  </diagram>
</mxfile>
